# xmcd CD database file
# Copyright (C) 1993-1998 Ti Kan
# 
# Track frame offsets:
#     222
#     13230
#     27525
#     41635
#     56830
#     69237
#     84470
#     98772
#     113800
#     126715
#     142165
#     157615
#     171925
#     185845
#     200570
#     213895
# 
# Disc length: 3015 seconds
# 
# Revision: 1
# Processed by: cddbd v1.4PL0 Copyright (c) Steve Scherf et al.
# Submitted via: DiscPlay 4.0.4
# 
DISCID=ec0bc510
DTITLE=Jimmie Rodgers - No More Hard Times, 1932
DYEAR=1900
DGENRE=country
TTITLE0=Blue Yodel No. 10
TTITLE1=Whippin' That Old T.B.
TTITLE2=Whippin' That Old T.B.
TTITLE3=Rock All Our Babies To Sleep
TTITLE4=Home Call
TTITLE5=Mother, The Queen Of My Heart
TTITLE6=No Hard Times
TTITLE7=No Hard Times
TTITLE8=Peach Pickin' Time Down In Georgia
TTITLE9=Long Tall Mama Blues
TTITLE10=Gambling Bar Room Blues
TTITLE11=I've Only Loved Three Women
TTITLE12=In The Hills Of Tennessee
TTITLE13=Prairie Lullaby
TTITLE14=Miss The Mississippi And You
TTITLE15=Sweet Mama Hurry Home
EXTD=
EXTT0=
EXTT1=
EXTT2=
EXTT3=
EXTT4=
EXTT5=
EXTT6=
EXTT7=
EXTT8=
EXTT9=
EXTT10=
EXTT11=
EXTT12=
EXTT13=
EXTT14=
EXTT15=
PLAYORDER=
